HIERARCHY
ROOT Hips
{
	OFFSET 0.000000 0.000000 0.000000
	CHANNELS 6 Xposition Yposition Zposition Zrotation Yrotation Xrotation 
	JOINT LHipJoint
	{
		OFFSET 0.000000 0.000000 0.000000
		CHANNELS 3 Zrotation Yrotation Xrotation
		JOINT LeftUpLeg
		{
			OFFSET 1.363060 -1.794630 0.839290
			CHANNELS 3 Zrotation Yrotation Xrotation
			JOINT LeftLeg
			{
				OFFSET 2.448110 -6.726130 0.000000
				CHANNELS 3 Zrotation Yrotation Xrotation
				JOINT LeftFoot
				{
					OFFSET 2.562200 -7.039590 0.000000
					CHANNELS 3 Zrotation Yrotation Xrotation
					JOINT LeftToeBase
					{
						OFFSET 0.157640 -0.433110 2.322550
						CHANNELS 3 Zrotation Yrotation Xrotation
						End Site
						{
							OFFSET 0.000000 0.000000 0.000000
						}
					}
				}
			}
		}
	}
	JOINT RHipJoint
	{
		OFFSET 0.000000 0.000000 0.000000
		CHANNELS 3 Zrotation Yrotation Xrotation
		JOINT RightUpLeg
		{
			OFFSET -1.305520 -1.794630 0.839290
			CHANNELS 3 Zrotation Yrotation Xrotation
			JOINT RightLeg
			{
				OFFSET -2.542530 -6.985550 0.000000
				CHANNELS 3 Zrotation Yrotation Xrotation
				JOINT RightFoot
				{
					OFFSET -2.568260 -7.056230 0.000000
					CHANNELS 3 Zrotation Yrotation Xrotation
					JOINT RightToeBase
					{
						OFFSET -0.164730 -0.452590 2.363150
						CHANNELS 3 Zrotation Yrotation Xrotation
						End Site
						{
							OFFSET 0.000000 0.000000 0.000000
						}
					}
				}
			}
		}
	}
	JOINT LowerBack
	{
		OFFSET 0.000000 0.000000 0.000000
		CHANNELS 3 Zrotation Yrotation Xrotation
		JOINT Spine
		{
			OFFSET 0.028270 2.035590 -0.193380
			CHANNELS 3 Zrotation Yrotation Xrotation
			JOINT Spine1
			{
				OFFSET 0.056720 2.048850 -0.042750
				CHANNELS 3 Zrotation Yrotation Xrotation
				JOINT Neck
				{
					OFFSET 0.000000 0.000000 0.000000
					CHANNELS 3 Zrotation Yrotation Xrotation
					JOINT Neck1
					{
						OFFSET -0.054170 1.746240 0.172020
						CHANNELS 3 Zrotation Yrotation Xrotation
						JOINT Head
						{
							OFFSET 0.104070 1.761360 -0.123970
							CHANNELS 3 Zrotation Yrotation Xrotation
							End Site
							{
								OFFSET 0.000000 0.000000 0.000000
							}
						}
					}
				}
				JOINT LeftShoulder
				{
					OFFSET 0.000000 0.000000 0.000000
					CHANNELS 3 Zrotation Yrotation Xrotation
					JOINT LeftArm
					{
						OFFSET 3.362410 1.200890 -0.311210
						CHANNELS 3 Zrotation Yrotation Xrotation
						JOINT LeftForeArm
						{
							OFFSET 4.983000 -0.000000 -0.000000
							CHANNELS 3 Zrotation Yrotation Xrotation
							JOINT LeftHand
							{
								OFFSET 3.483560 -0.000000 -0.000000
								CHANNELS 3 Zrotation Yrotation Xrotation
								JOINT LeftFingerBase
								{
									OFFSET 0.000000 0.000000 0.000000
									CHANNELS 3 Zrotation Yrotation Xrotation
									JOINT LeftHandIndex1
									{
										OFFSET 0.715260 -0.000000 -0.000000
										CHANNELS 3 Zrotation Yrotation Xrotation
										End Site
										{
											OFFSET 0.000000 0.000000 0.000000
										}
									}
								}
								JOINT LThumb
								{
									OFFSET 0.000000 0.000000 0.000000
									CHANNELS 3 Zrotation Yrotation Xrotation
									End Site
									{
										OFFSET 0.000000 0.000000 0.000000
									}
								}
							}
						}
					}
				}
				JOINT RightShoulder
				{
					OFFSET 0.000000 0.000000 0.000000
					CHANNELS 3 Zrotation Yrotation Xrotation
					JOINT RightArm
					{
						OFFSET -3.136600 1.374050 -0.404650
						CHANNELS 3 Zrotation Yrotation Xrotation
						JOINT RightForeArm
						{
							OFFSET -5.241900 -0.000000 -0.000000
							CHANNELS 3 Zrotation Yrotation Xrotation
							JOINT RightHand
							{
								OFFSET -3.444170 -0.000000 -0.000000
								CHANNELS 3 Zrotation Yrotation Xrotation
								JOINT RightFingerBase
								{
									OFFSET 0.000000 0.000000 0.000000
									CHANNELS 3 Zrotation Yrotation Xrotation
									JOINT RightHandIndex1
									{
										OFFSET -0.622530 -0.000000 -0.000000
										CHANNELS 3 Zrotation Yrotation Xrotation
										End Site
										{
											OFFSET 0.000000 0.000000 0.000000
										}
									}
								}
								JOINT RThumb
								{
									OFFSET 0.000000 0.000000 0.000000
									CHANNELS 3 Zrotation Yrotation Xrotation
									End Site
									{
										OFFSET 0.000000 0.000000 0.000000
									}
								}
							}
						}
					}
				}
			}
		}
	}
}
MOTION
Frames: 10
Frame Time: 0.008333
2.253397 17.346160 0.471089 8.110694 83.785124 23.681388 -10.191257 0.349328 1.410481 -11.294441 1.238607 -41.875405 -0.957705 1.700383 37.438677 2.907648 15.987477 -3.963827 1.585900 0.000000 -21.056400 8.237760 -1.632043 2.119519 10.648946 3.797662 -7.187331 2.766742 1.598809 3.056856 -1.094547 -2.939994 -10.266164 0.060300 -0.000000 -21.921001 -0.636094 -0.967547 -3.674234 -1.025261 -1.112792 -3.902104 -7.066016 -1.282201 -0.468212 9.679953 -0.906804 -3.724233 -4.502347 -0.378633 1.019020 0.000000 0.000000 0.000000 -5.159586 2.564983 2.632791 -65.450670 4.969343 10.798277 -3.686498 -14.256554 -0.002671 2.802595 2.441587 0.061679 -0.078061 -0.006097 -0.000000 0.000000 0.000000 0.000000 0.000000 0.000000 0.000000 18.912681 2.061550 0.662701 71.178747 22.590599 16.604917 2.577335 29.933491 0.008262 0.199327 6.592750 0.009359 0.053943 -0.162044 0.000000 0.000000 0.000000 0.000000 0.000000 0.000000 0.000000 
2.529608 17.315686 0.494117 7.721578 83.401646 23.168304 -10.031346 0.255758 1.679325 -11.079494 0.767005 -42.026747 -1.191295 1.374875 33.089029 2.816632 15.278684 -3.700560 1.657500 0.000000 -21.686400 8.305023 -1.668434 1.882928 10.545134 3.139456 -5.301340 2.784566 1.682002 1.841172 -0.970315 -2.413005 -10.013216 0.046100 0.000000 -22.756700 -0.835612 -0.759983 -3.668684 -1.069317 -0.888171 -3.925560 -7.010762 -1.056955 -0.548168 9.591767 -0.843375 -3.666291 -4.467030 -0.377738 1.036597 0.000000 0.000000 0.000000 -5.235049 2.785023 2.670608 -65.611196 6.529087 10.467883 -3.760353 -13.155908 -0.002914 2.274404 2.674330 0.055329 -0.079563 -0.013646 -0.000000 0.000000 0.000000 0.000000 0.000000 0.000000 0.000000 18.680298 2.447163 0.607397 71.446834 24.205270 18.693025 2.495603 31.657982 0.008513 0.373355 6.632691 0.019994 0.050290 -0.174293 0.000000 0.000000 0.000000 0.000000 0.000000 0.000000 0.000000 
2.808177 17.277049 0.513400 6.384640 82.970460 21.716106 -9.899501 0.172880 1.968496 -10.680976 0.410471 -42.131796 -1.419559 1.027122 28.576425 2.676519 14.397146 -3.185629 1.761600 -0.000000 -22.764700 8.356852 -1.702783 1.637728 10.523021 2.439489 -3.472352 2.817431 1.758669 0.732032 -0.833156 -1.809580 -9.719202 0.030100 0.000001 -23.965300 -0.901912 -0.533852 -3.672920 -1.090115 -0.655845 -3.952351 -6.957369 -0.822638 -0.628594 9.484046 -0.753942 -3.606459 -4.426153 -0.376455 1.055619 0.000000 0.000000 0.000000 -5.349064 3.057063 2.706295 -65.712149 8.107544 10.293316 -3.827590 -12.237655 -0.003243 1.774058 2.867824 0.046881 -0.081323 -0.021442 -0.000000 0.000000 0.000000 0.000000 0.000000 0.000000 0.000000 18.393425 2.867971 0.550760 71.640392 25.825605 20.627744 2.418981 33.374560 0.008822 0.531843 6.692873 0.030027 0.046804 -0.187005 0.000000 0.000000 0.000000 0.000000 0.000000 0.000000 0.000000 
3.089145 17.230625 0.528968 4.263059 82.501169 19.487422 -9.795866 0.093200 2.266629 -10.128289 0.215695 -42.228220 -1.639591 0.660707 23.990827 2.485180 13.336491 -2.482303 1.864101 0.000000 -24.165600 8.393852 -1.738879 1.390677 10.583613 1.705913 -1.711763 2.864346 1.827451 -0.247152 -0.689582 -1.151909 -9.407519 0.015300 0.000000 -25.517100 -0.830112 -0.292713 -3.683840 -1.086806 -0.419607 -3.979199 -6.906614 -0.582683 -0.700554 9.363678 -0.677557 -3.556957 -4.381439 -0.374789 1.072758 0.000000 0.000000 0.000000 -5.497818 3.377168 2.735587 -65.761142 9.697197 10.260884 -3.885387 -11.503259 -0.003632 1.317140 3.022393 0.037334 -0.083057 -0.029561 -0.000000 0.000000 0.000000 0.000000 0.000000 0.000000 0.000000 18.074315 3.278646 0.494756 71.750025 27.498464 22.489419 2.347582 35.054712 0.009117 0.636074 6.781209 0.036960 0.044063 -0.199965 0.000000 0.000000 0.000000 0.000000 0.000000 0.000000 0.000000 
3.372294 17.176792 0.541021 1.556190 82.000894 16.670674 -9.716099 0.009655 2.555565 -9.475889 0.233410 -42.340948 -1.851772 0.282138 19.435655 2.241074 12.077609 -1.671753 1.926100 0.000000 -25.814600 8.421195 -1.781488 1.145897 10.716386 0.938580 -0.020974 2.922860 1.884891 -1.071058 -0.545073 -0.457892 -9.103343 0.004099 -0.000000 -27.368500 -0.624019 -0.041007 -3.689045 -1.059394 -0.183072 -4.004692 -6.857252 -0.340927 -0.770130 9.229030 -0.579643 -3.509636 -4.331140 -0.372634 1.089980 0.000000 0.000000 0.000000 -5.672218 3.745415 2.762125 -65.767256 11.282304 10.361019 -3.933339 -10.932460 -0.004054 0.916468 3.140005 0.027789 -0.084645 -0.037836 -0.000000 0.000000 0.000000 0.000000 0.000000 0.000000 0.000000 17.707194 3.711538 0.436322 71.788718 29.170462 24.192039 2.277057 36.715687 0.009360 0.701447 6.884751 0.041894 0.041662 -0.213121 0.000000 0.000000 0.000000 0.000000 0.000000 0.000000 0.000000 
3.656880 17.116072 0.550151 -1.416781 81.480259 13.552883 -9.653465 -0.084823 2.807794 -8.813746 0.509506 -42.465111 -2.062028 -0.098828 15.026830 1.942717 10.586260 -0.851212 1.906699 0.000000 -27.628200 8.448629 -1.836215 0.893797 10.881899 0.091298 1.617531 2.989462 1.922958 -1.713556 -0.398152 0.286704 -8.809897 -0.003201 0.000000 -29.658100 -0.313128 0.212514 -3.653078 -1.011646 0.048758 -4.021523 -6.805845 -0.102443 -0.838132 9.079335 -0.444842 -3.464007 -4.272922 -0.369741 1.106798 0.000000 0.000000 0.000000 -5.853178 4.174166 2.789376 -65.740590 12.812047 10.592844 -3.972028 -10.483206 -0.004479 0.581974 3.223356 0.019047 -0.086055 -0.045973 -0.000000 0.000000 0.000000 0.000000 0.000000 0.000000 0.000000 17.279259 4.177408 0.370554 71.773134 30.819502 25.686667 2.203774 38.350201 0.009504 0.734843 7.002025 0.044924 0.039280 -0.226447 0.000000 0.000000 0.000000 0.000000 0.000000 0.000000 0.000000 
3.943105 17.049181 0.556586 -4.495159 80.941345 10.297031 -9.600719 -0.195436 3.009432 -8.221119 1.068540 -42.651308 -2.277809 -0.470346 10.897870 1.593602 8.829241 -0.113444 1.777700 0.000000 -29.610300 8.476780 -1.907927 0.648400 11.058094 -0.797759 3.186884 3.059538 1.939164 -2.148141 -0.257433 1.046740 -8.562848 -0.005600 0.000000 -32.191000 0.084867 0.465565 -3.579701 -0.946020 0.274960 -4.029351 -6.753011 0.131512 -0.902328 8.919136 -0.304535 -3.424666 -4.208629 -0.366241 1.122010 0.000000 0.000000 0.000000 -6.037600 4.630660 2.813981 -65.685165 14.309173 10.898375 -4.001696 -10.164452 -0.004876 0.317084 3.282686 0.011708 -0.087159 -0.054032 -0.000000 0.000000 0.000000 0.000000 0.000000 0.000000 0.000000 16.809520 4.639546 0.301466 71.695583 32.465555 27.024905 2.128038 39.939388 0.009484 0.716938 7.122278 0.044750 0.037287 -0.239696 -0.000000 0.000000 0.000000 0.000000 0.000000 0.000000 0.000000 
4.230260 16.976892 0.561173 -7.326641 80.398090 7.224095 -9.550556 -0.324601 3.141177 -7.803535 1.904828 -42.900554 -2.509008 -0.819629 7.185424 1.201137 6.783402 0.442469 1.523900 -0.000000 -31.688700 8.511584 -1.998404 0.395423 11.173967 -1.784044 4.699960 3.128349 1.925391 -2.349406 -0.117207 1.857555 -8.354249 -0.004800 0.000001 -35.142600 0.512152 0.708538 -3.438236 -0.870981 0.491993 -4.022106 -6.693662 0.356923 -0.962946 8.745748 -0.140138 -3.391172 -4.135274 -0.361848 1.135098 0.000000 0.000000 0.000000 -6.200847 5.137802 2.839627 -65.608998 15.706277 11.287680 -4.024616 -9.917899 -0.005223 0.122374 3.320745 0.006074 -0.088083 -0.061665 -0.000000 0.000000 0.000000 0.000000 0.000000 0.000000 0.000000 16.279469 5.112749 0.221640 71.582486 34.075122 28.142758 2.047135 41.472829 0.009292 0.671768 7.242616 0.042670 0.035118 -0.252861 -0.000000 0.000000 0.000000 0.000000 0.000000 0.000000 0.000000 
4.518556 16.900423 0.564586 -9.705474 79.859141 4.548865 -9.496331 -0.470141 3.209777 -7.606394 2.943193 -43.241324 -2.754580 -1.138718 3.989426 0.787432 4.504420 0.754752 1.168100 -0.000000 -33.862601 8.551455 -2.104225 0.140263 11.178740 -2.835888 6.136491 3.189847 1.880176 -2.296482 0.018419 2.705511 -8.209694 -0.001900 -0.000000 -38.307500 0.921424 0.938493 -3.242613 -0.795108 0.700277 -4.002750 -6.629086 0.573477 -1.021030 8.566187 0.028568 -3.363530 -4.055569 -0.356816 1.146091 0.000000 0.000000 0.000000 -6.338836 5.659653 2.864134 -65.508899 17.030072 11.701291 -4.043915 -9.749352 -0.005516 -0.009719 3.347764 0.002243 -0.088886 -0.068940 -0.000000 0.000000 0.000000 0.000000 0.000000 0.000000 0.000000 15.713557 5.572862 0.135607 71.430614 35.648092 29.065329 1.962260 42.935212 0.008914 0.600894 7.349631 0.038784 0.032830 -0.265749 -0.000000 0.000000 0.000000 0.000000 0.000000 0.000000 0.000000 
4.808182 16.821037 0.567462 -11.504695 79.337748 2.411828 -9.432991 -0.624431 3.233129 -7.622417 4.065073 -43.682840 -3.003897 -1.421457 1.382376 0.382366 2.111349 0.779280 0.760000 -0.000000 -36.022400 8.596246 -2.218685 -0.117020 11.028667 -3.931598 7.477395 3.239386 1.803154 -1.979447 0.148912 3.589393 -8.134117 0.000000 0.000000 -41.582001 1.271320 1.153137 -3.010232 -0.726152 0.900153 -3.974221 -6.558695 0.781053 -1.074161 8.382898 0.195139 -3.344079 -3.970171 -0.351194 1.154332 0.000000 0.000000 0.000000 -6.441871 6.198790 2.886239 -65.383151 18.258558 12.129830 -4.061750 -9.631956 -0.005753 -0.088810 3.368323 -0.000184 -0.089687 -0.075777 -0.000000 0.000000 0.000000 0.000000 0.000000 0.000000 0.000000 15.118570 6.011174 0.042060 71.254376 37.168966 29.788438 1.874809 44.310724 0.008385 0.520816 7.440240 0.034090 0.030226 -0.278245 -0.000000 0.000000 0.000000 0.000000 0.000000 0.000000 0.000000 
